<svg width="148" height="75" viewBox="0 0 148 75" fill="none" xmlns="http://www.w3.org/2000/svg">
<path d="M29.3983 49.9463H15.5203L13.4143 55.7243H2.45231L18.4903 15.7643H26.5363L42.4123 55.7243H31.3423L29.3983 49.9463ZM22.4323 28.1843L18.3283 41.8463H26.6983L22.5943 28.1843H22.5403H22.4323ZM46.5062 55.7243V15.7643H59.5742C66.9722 15.7643 69.7262 16.8983 71.8862 18.6803C75.0182 21.2723 76.5842 25.2143 76.5842 29.2643C76.5842 33.3143 74.9102 37.5803 72.3722 39.7403C69.6182 42.0623 66.9182 43.1963 60.7082 43.1963H56.2802V55.7243H46.5062ZM56.2802 24.7283V34.2323H60.4382C62.3822 34.2323 66.8102 34.2323 66.8102 29.4263C66.8102 24.7283 62.2742 24.7283 60.0602 24.7283H56.2802ZM80.8363 55.7243V15.7643H103.03V24.7283H90.6103V30.9383H102.652V39.9023H90.6103V46.7603H103.03V55.7243H80.8363ZM133.018 15.7643H144.52L132.316 34.6643L146.14 55.7243H134.584L125.944 41.5763L117.736 55.7243H106.342L120.328 34.4483L107.962 15.7643H119.518L126.376 27.1583L133.018 15.7643Z" fill="white"/>
<path d="M2.01631 70.7243V59.6243H7.62631V60.6293H3.12631V64.6493H7.46131V65.6543H3.12631V70.7243H2.01631ZM9.44658 70.7243V59.6243H15.5216V60.6293H10.5566V64.6193H15.3566V65.6243H10.5566V69.7193H15.5216V70.7243H9.44658ZM17.7136 70.7243V59.6243H19.2136L25.4086 68.8343H25.4386V59.6243H26.5486V70.7243H25.4386L18.8536 60.9593H18.8236V70.7243H17.7136ZM38.1621 67.8143H39.4071C38.2221 69.9893 36.0771 70.9193 34.2921 70.9193C31.1871 70.9193 28.4871 68.4743 28.4871 65.1893C28.4871 61.9043 31.1121 59.4443 34.2771 59.4443C37.1271 59.4443 38.9271 61.4393 39.3621 62.4743H38.1171C36.9021 60.6593 34.9371 60.4493 34.2621 60.4493C31.6671 60.4493 29.5971 62.7293 29.5971 65.2043C29.5971 67.7993 31.8771 69.9143 34.2771 69.9143C34.8321 69.9143 36.6471 69.8393 38.1621 67.8143ZM41.3342 70.7243V59.6243H42.4442V70.7243H41.3342ZM44.853 70.7243V59.6243H46.353L52.548 68.8343H52.578V59.6243H53.688V70.7243H52.578L45.993 60.9593H45.963V70.7243H44.853ZM59.8715 65.6243H67.4015C67.1465 68.9243 64.2665 70.9193 61.5365 70.9193C58.2215 70.9193 55.5815 68.2343 55.5815 65.1743C55.5815 62.2943 57.9665 59.4293 61.5215 59.4293C64.4615 59.4293 66.3365 61.4543 66.7715 62.5793H65.4815C64.8515 61.4843 63.3815 60.4343 61.5365 60.4343C58.7315 60.4343 56.6915 62.7143 56.6915 65.1893C56.6915 67.6643 58.7315 69.9143 61.5815 69.9143C63.9365 69.9143 65.6765 68.1743 66.0665 66.6293H59.8715V65.6243ZM81.5678 63.4943H82.8128L80.7578 67.4093L83.5628 70.1393L82.7678 70.9043L80.2328 68.4293C79.8428 69.1643 78.9278 70.9043 76.8578 70.9043C74.7428 70.9043 73.3628 69.1943 73.3628 67.5143C73.3628 65.7743 74.6378 64.7993 75.9278 64.2143C75.3728 63.6593 74.6828 62.9693 74.6828 61.8893C74.6828 60.4793 75.9428 59.4293 77.3528 59.4293C78.7178 59.4293 80.0078 60.5393 80.0078 62.0243C80.0078 63.5993 78.4178 64.3493 77.8478 64.5443L79.9478 66.6143L81.5678 63.4943ZM79.3928 67.6343L76.7228 65.0093C76.4528 65.0993 75.8978 65.3843 75.6278 65.5793C74.6828 66.2693 74.4728 66.9593 74.4728 67.5743C74.4728 68.9243 75.6578 69.8543 76.7678 69.8543C78.2678 69.8543 78.9728 68.4593 79.3928 67.6343ZM78.8978 61.9193V61.8743C78.8978 61.1693 78.2528 60.4793 77.3378 60.4793C76.4078 60.5093 75.7928 61.1843 75.7928 61.8743C75.8078 62.6243 76.4378 63.2243 77.0528 63.7643C77.5928 63.5543 78.8978 63.1193 78.8978 61.9643V61.9193ZM89.3854 70.7243V59.6243H92.2054C93.6904 59.6243 94.4254 59.8043 94.9354 60.0443C96.1804 60.6293 96.9154 61.8443 96.9154 63.2093C96.9154 64.8143 95.7604 66.4493 93.6154 66.5843L96.7504 70.7243H95.3554L91.5904 65.6993C93.0004 65.6993 93.4804 65.6843 93.9754 65.5343C95.1904 65.1893 95.8054 64.1693 95.8054 63.1793C95.8054 62.3093 95.3104 61.4093 94.5904 61.0493C93.9304 60.7043 93.3604 60.6293 92.4304 60.6293H90.4954V70.7243H89.3854ZM97.7768 70.7243L102.517 59.6243H103.762L108.532 70.7243H107.317L105.712 66.9893H100.552L98.9318 70.7243H97.7768ZM103.147 60.8843L100.972 65.9843H105.277L103.147 60.8843ZM109.99 70.7243V59.6243H111.1V70.7243H109.99ZM113.614 70.7243V59.6243H114.724V69.7193H119.314V70.7243H113.614ZM120.603 70.7243V59.6243H121.713V70.7243H120.603ZM124.122 70.7243V59.6243H125.622L131.817 68.8343H131.847V59.6243H132.957V70.7243H131.847L125.262 60.9593H125.232V70.7243H124.122ZM139.14 65.6243H146.67C146.415 68.9243 143.535 70.9193 140.805 70.9193C137.49 70.9193 134.85 68.2343 134.85 65.1743C134.85 62.2943 137.235 59.4293 140.79 59.4293C143.73 59.4293 145.605 61.4543 146.04 62.5793H144.75C144.12 61.4843 142.65 60.4343 140.805 60.4343C138 60.4343 135.96 62.7143 135.96 65.1893C135.96 67.6643 138 69.9143 140.85 69.9143C143.205 69.9143 144.945 68.1743 145.335 66.6293H139.14V65.6243Z" fill="white"/>
</svg>
